<?xml version="1.0" encoding="UTF-8"?>
<!DOCTYPE svg PUBLIC "-//W3C//DTD SVG 1.1//EN" "http://www.w3.org/Graphics/SVG/1.1/DTD/svg11.dtd">
<!-- Creator: CorelDRAW 2018 (64-Bit) -->
<svg xmlns="http://www.w3.org/2000/svg" xml:space="preserve" width="1250mm" height="930mm" version="1.1" style="shape-rendering:geometricPrecision; text-rendering:geometricPrecision; image-rendering:optimizeQuality; fill-rule:evenodd; clip-rule:evenodd"
viewBox="0 0 125000 93000"
 xmlns:xlink="http://www.w3.org/1999/xlink">
 <defs>
  <style type="text/css">
   <![CDATA[
    .fil0 {fill:#4E4E4D}
    .fil1 {fill:#9C9D9D}
   ]]>
  </style>
 </defs>
 <g id="Katman_x0020_1">
  <metadata id="CorelCorpID_0Corel-Layer"/>
  <path class="fil0" d="M4617.59 90939.25l29801.92 0c-124.73,-5346.21 -9933.97,-4611.62 -9933.97,-15614.68 0,-7813.66 14766.62,-39693.03 18867.13,-49472.08l2165.79 -5182.92c492.46,-930.29 542.81,-977.88 1172.59,-1669.15 625.47,2562.13 2597.79,6477.89 3756.13,9241.58 1370.04,3269.06 2561.35,6069.74 3846.41,9155.75l11418.97 28139.08c5976.42,17004.97 -11549.33,20126.39 -12009.32,25402.42l69538.15 0c-105.51,-4516.93 -24.68,-308.57 -9696.11,-7476.8 -9018.79,-6684.66 -12627.34,-21495.83 -17774.88,-33784.37l-4742.37 -12204.3c-784.16,-2082.52 -1430.83,-3963.81 -2347.67,-6124.43l-7342.15 -18645.83c-904.41,-2205.67 -1597.96,-4032.27 -2497.41,-5981.69 -857.86,-1859.48 -1270.65,-5566.74 -3516.44,-5566.74l-41489.07 0c-2005.95,0 -3262.02,2383.99 577.43,4463.82 2077.83,1125.68 3698.16,2040.01 5622.77,3560.72 4646.47,3671.69 2920.13,6565.32 565.51,12373.75 -1865.98,4602.78 -3443.73,8201.43 -5346.98,12742.55 -5863.45,13990.42 -17421.06,44170.61 -28965.59,52662.9 -886.19,651.92 -5826.18,3980.42 -1670.84,3980.42z"/>
  <path class="fil1" d="M37099.87 51638.77c0,2149.48 7308.76,12376.39 14226.72,4961.08 2930.59,-3141.11 3587.95,-5042.62 2001.09,-8127.36 -4547.98,-8840.66 -16227.81,-4554.4 -16227.81,3166.28z"/>
 </g>
</svg>
