<?xml version="1.0" encoding="UTF-8"?>
<!DOCTYPE svg PUBLIC "-//W3C//DTD SVG 1.1//EN" "http://www.w3.org/Graphics/SVG/1.1/DTD/svg11.dtd">
<!-- Creator: CorelDRAW 2018 (64-Bit) -->
<svg xmlns="http://www.w3.org/2000/svg" xml:space="preserve" width="5500mm" height="970mm" version="1.1" style="shape-rendering:geometricPrecision; text-rendering:geometricPrecision; image-rendering:optimizeQuality; fill-rule:evenodd; clip-rule:evenodd"
viewBox="0 0 550000 97000"
 xmlns:xlink="http://www.w3.org/1999/xlink">
 <defs>
  <style type="text/css">
   <![CDATA[
    .fil0 {fill:#8A8A8B}
   ]]>
  </style>
 </defs>
 <g id="Katman_x0020_1">
  <metadata id="CorelCorpID_0Corel-Layer"/>
  <g id="_2021541238256">
   <path class="fil0" d="M136236.91 93427.98c0,1745.45 801.98,1565.19 1731.06,1565.19 929.07,0 1731.22,180.26 1731.22,-1565.19l0 -91748.78 -3462.28 0 0 91748.78z"/>
   <g>
    <path class="fil0" d="M3474.71 93814.3l30417.56 0c-127.31,-5456.65 -10139.19,-4706.89 -10139.19,-15937.24 0,-7975.07 15071.67,-40512.99 19256.88,-50494.06l2210.53 -5289.98c502.63,-949.51 554.03,-998.08 1196.82,-1703.64 638.39,2615.07 2651.45,6611.72 3833.72,9432.5 1398.34,3336.59 2614.26,6195.12 3925.87,9344.88l11654.85 28720.36c6099.88,17356.26 -11787.91,20542.16 -12257.4,25927.18l70974.64 0c-107.69,-4610.24 -25.19,-314.94 -9896.41,-7631.25 -9205.1,-6822.75 -12888.19,-21939.88 -18142.06,-34482.28l-4840.34 -12456.4c-800.36,-2125.55 -1460.39,-4045.7 -2396.16,-6250.95l-7493.82 -19031.01c-923.1,-2251.24 -1630.98,-4115.57 -2549,-6105.26 -875.59,-1897.89 -1296.9,-5681.73 -3589.09,-5681.73l-42346.13 0c-2047.39,0 -3329.41,2433.23 589.36,4556.03 2120.75,1148.93 3774.55,2082.15 5738.92,3634.28 4742.45,3747.53 2980.45,6700.94 577.19,12629.36 -1904.52,4697.85 -3514.87,8370.85 -5457.43,13005.78 -5984.58,14279.43 -17780.94,45083.06 -29563.95,53750.79 -904.5,665.38 -5946.53,4062.64 -1705.36,4062.64z"/>
    <path class="fil0" d="M36627.99 53701.97c0,2193.88 7459.75,12632.05 14520.61,5063.56 2991.14,-3205.99 3662.08,-5146.79 2042.44,-8295.25 -4641.94,-9023.29 -16563.05,-4648.48 -16563.05,3231.69z"/>
   </g>
   <path class="fil0" d="M273413.52 11832.7l7470.6 20671.44 -14539.85 -353.17 7069.25 -20318.27zm-22994.61 40972.67c2014.53,1377.82 12572.85,672.88 15837.2,368.8 -675.08,-2238.01 437.73,-995.26 -2345.46,-2213.77 -5467.81,-2393.57 -1623.16,-4948.95 1341.94,-15720.15l16681.11 -30.33c1023.33,3996.05 4718.65,10443.04 3743.74,14583.24 -1839.08,2005.38 -3583.11,738.71 -4728.19,3014.39 2298.23,1561.22 16964.38,269.69 20006.48,269.07 4192.18,-0.94 9942.08,871.12 16186.47,41.89 -2002.49,-4811.99 -6355.73,2127.01 -6355.73,-10736.34l69.09 -30944.7c4302.63,5166.89 14555.25,39394.73 18150.24,42466.65l17244.85 -43958.29c646.92,5982.2 248.5,24633.41 243.07,31884.78 0,13084.1 -4080.98,6387.43 -6525.46,10927.38 2002.94,1480.08 15846.73,801.09 19369.69,300.33 -1850.52,-4620.47 -6553.47,1969.58 -6553.47,-10676.15l0 -28128.23c0,-12647.6 4713.66,-6053.8 6531.62,-10532.94 -4124.7,-1013.55 -5517.25,-529.68 -10234.87,-497.63 -3325.08,0 -2986.07,-10.48 -4066.31,2839.92 -4307.48,11366.54 -10544.83,25977.46 -14060.17,36368.29 -1626.08,-1845.44 -7445.66,-17562.93 -8958.35,-21372.47 -1493.47,-3760.92 -2827.79,-6978.24 -4361.02,-10790.28 -2324.34,-5779.11 -275.34,-8067.61 -15128.96,-7045.62l-2177.79 301.27c870.61,2072.29 2661.73,1937.99 7263.91,4186.47l88.89 34119.66c0,4091.73 274.17,7520.73 -2611.71,8800.07 -1186.45,525.92 -3619.93,1450.21 -4159.02,1475.53 -7024.21,329.26 -9666.88,-11120.62 -11753.28,-17002.45l-9255.7 -25994.35c-1078.63,-3087.55 -2015.4,-6976.04 -3787.74,-8150.31 -1907.15,1297.93 -4954.39,10612.36 -6020.4,13498.71 -1778.64,4816.05 -11884.28,32445.56 -13930.78,34786.6 -2080.25,2379.49 -4535.58,1727.87 -5743.89,3560.96z"/>
   <path class="fil0" d="M218642.01 6629.39c5531.57,-3191.52 18840.15,-1466.15 23369.55,9809.4 4137.03,10298.75 4296.06,34323.84 -14752.67,34894.48 -7512.67,224.97 -8635.31,-1746.63 -8752.99,-8934.05 -168.94,-10324.55 -792.66,-25904.14 136.11,-35769.83zm-43956.84 5203.31c100.5,117.26 217.87,280.01 278.11,371.15 1525.08,2308.83 7238.91,18784.42 7607.75,20300.29l-15348.05 -353.17 7462.19 -20318.27zm-24272.77 40972.67c2126.5,1377.82 13271.72,672.88 16717.51,368.8 -712.6,-2238.01 462.07,-995.26 -2475.83,-2213.77 -5771.74,-2393.57 -1713.38,-4948.95 1416.53,-15720.15l17608.35 -30.33c1080.2,3996.05 4980.94,10443.04 3951.83,14583.24 -1941.31,2005.38 -3782.28,738.71 -4991.01,3014.39 254.72,163.85 22905.48,605.2 23848.03,605.2 14379.8,0 29276.17,1887.18 38650.87,-5642.94 8977.06,-7210.56 11998.89,-27701.27 -654.99,-38790.16 -8449.97,-7404.89 -25329.3,-5756.28 -37995.88,-5756.28 -2086.86,0 -1367.29,-147.9 -2518.26,654.75 2558.52,4530.58 6888.34,-2187.98 6888.34,10927.39l0 27576.66c0,4304.05 214.46,7155.22 -3153.91,8392.65 -1656.08,608.48 -8572.6,4466.48 -4369.92,1320.14 -897.49,-66.45 -3646.17,-1149.26 -4352.73,-1579.51 -3456.63,-2105.12 -5953.68,-10768.54 -7825.78,-15811.76l-11285.04 -29977.74c-800.24,-2150.92 -745.12,-2769.09 -2334.77,-3766.85 -2366.05,1525.41 -10923.48,24638.56 -12066.71,27581.04 -1827.65,4704.43 -3740.15,9315.68 -5655.76,14147.52 -4752.23,11986.44 -6951.98,6598.49 -9400.87,10117.71z"/>
   <path class="fil0" d="M425329.08 4132.64c23623.68,-5357.93 25995.38,43402.66 5918.67,47788.62 -23996.23,5242.4 -26485.66,-43123.9 -5918.67,-47788.62zm-265.43 -2079.16c-13169.57,1846.84 -23363.92,13505.27 -21737.62,29682.09 3399.26,33810.57 53614.83,28381.04 49626.07,-7399.57 -1522.6,-13657.24 -12971.73,-24374.35 -27888.45,-22282.52z"/>
   <path class="fil0" d="M459096.84 4105.6c1473.51,3524.06 6397.01,-246.55 7160.03,8316.19l74.9 31972.01c-265.28,9881.79 -4427.71,4689.42 -6621.27,8695.01 1536.33,1116.11 14203.1,1201.47 16219.26,103.34 -853.44,-1947.21 -1338.04,-1331.55 -3411.35,-2059.15 -1814.89,-637.09 -2328.89,-1075.78 -2743.96,-3121.49 -725.27,-3575.34 -427.76,-33550.42 -73.56,-36003.55l27314.33 38282.21c1413.08,1994.43 2384.39,4403.78 4747.74,5140.3 1312.38,-5260.22 -111.31,-34216.27 429.55,-43628.57 472.67,-8225.05 4554.38,-3841.12 6590.23,-7603.75 -1590.93,-1128.62 -14327.52,-1128.62 -15918.46,0 2936.14,5491.6 6653.64,-4490.24 6643.65,14798.84 -2.99,5820.38 611.57,17256.5 -211.87,22406.34l-16449.02 -22602.08c-2971.65,-4020.91 -5526.43,-7616.73 -8416.91,-11587.77 -1997.81,-2744.55 -1635.99,-3616.15 -5944.34,-3675.24 -2460.63,-33.62 -7475,-584.25 -9388.95,567.36z"/>
   <path class="fil0" d="M365845.74 36018.51c-1022.92,1826.68 -1501.56,14313.87 0,16032.05 1508.73,-878.17 1276.42,-1392.99 1854.73,-3353.19 3691.84,524.37 6226.48,4390.66 12886.69,4608.75 5521.5,180.73 10012.76,-2364.48 12305.99,-5270.53 5341.12,-6768.12 5499.72,-17683.16 -4999.89,-23874.69 -5606.4,-3305.97 -20799.59,-8598.24 -15137.69,-18176.57 2119.11,-3585.03 8409.29,-4224.77 12635.28,-1793.06 5220.11,3003.6 4517.67,8788.5 7298.64,10489.64 1068.43,-1866.08 791.36,-11452.7 149.95,-13700.08 -1981.55,604.09 -614.12,237.32 -1379.67,868.78 -1417.26,1168.95 526.68,283.91 -1402.05,1294.34 -4489.62,-1693.63 -8102.54,-3675.87 -13898.87,-2391.54 -4252.39,942.27 -8200.26,4496.81 -9484.74,8225.21 -6078.17,17642.19 18584.4,18040.24 23122.36,28079.46 4565.12,10099.41 -8211.75,18175.62 -17176.38,10278.57 -1012.33,-891.92 -2602.67,-3329.26 -3493.11,-5148.74 -2335.6,-4773.38 -493.11,-5277.26 -3281.24,-6168.4z"/>
   <path class="fil0" d="M515433.79 37031.12c-1022.93,1826.68 -1501.57,14313.87 0,16032.05 1508.87,-878.16 1276.56,-1392.99 1854.87,-3353.18 3691.69,524.36 6226.33,4390.65 12886.54,4608.75 15461.6,506.07 22788.89,-20015.13 7306.1,-29145.23 -5606.4,-3305.96 -20799.59,-8598.23 -15137.69,-18176.56 2119.11,-3585.04 8409.3,-4224.78 12635.28,-1793.07 5220.11,3003.61 4517.67,8788.5 7298.79,10489.64 1068.43,-1866.07 791.22,-11452.69 149.8,-13700.08 -2310.39,704.31 -916.99,1186.31 -2781.57,2163.12 -4489.77,-1693.63 -8102.68,-3675.87 -13899.02,-2391.53 -4252.24,942.26 -8200.26,4496.81 -9484.74,8225.2 -6078.02,17642.2 18584.4,18040.24 23122.36,28079.46 4565.27,10099.41 -8211.6,18175.63 -17176.23,10278.58 -5444.21,-4795.89 -3427.9,-10247.47 -6774.49,-11317.15z"/>
   <path class="fil0" d="M457984.86 68204.35c1462.44,817.09 15722.16,18730.79 17575.58,21218.31 971.3,1303.76 1958.12,2151.81 2927.71,3471.11 1100.28,1497.28 1516.95,2210.69 3245.92,3578.96l-1.21 -38447.09 -4139.43 0c3.53,6149.44 240.43,21800.33 -73.56,26899.2l-11751.02 -14366.83c-565.71,-697.75 -1022.69,-1039.88 -1618.73,-1744.84 -576.19,-681.32 -920.71,-1232.05 -1460.22,-1958.4 -968.98,-1304.55 -1956.2,-2155.3 -2926.7,-3472.01 -1106.02,-1500.66 -1576.1,-2015.59 -2899.08,-3507.81 -1338.2,-1509.44 -1572.18,-2586.58 -3017.39,-3568.04l-0.1 38358.72 4138.23 -161.21 0 -26300.07z"/>
   <path class="fil0" d="M351949.28 67749.4c1530.89,823.17 10240.48,11907.57 12330.15,14078.41 1166.43,1211.79 1772.63,2395.2 2938.55,3606.54l6034.25 7004.47c1143.2,1497.28 1576.12,2210.69 3372.53,3578.96l-1.26 -38447.09 -4300.88 0c3.67,6149.44 249.81,21800.34 -76.32,26899.2l-24596.54 -28617.93 -0.1 38358.72 4299.62 -161.21 0 -26300.07z"/>
   <path class="fil0" d="M294763.15 79221.79c-2833.13,19595.51 -29406.08,15247.31 -26289.26,-5111.47 2852.16,-18630.26 29261.99,-15449.27 26289.26,5111.47zm-15342.54 -21667.6c-22682.27,3317.21 -20061.57,41255.34 4356.87,38612.46 22884.01,-2476.71 20138.58,-42194.8 -4356.87,-38612.46z"/>
   <path class="fil0" d="M306807.67 58323.13c0,6400.5 -732.09,21026.37 386.37,26409.05 3237.85,15582.67 26581.63,15363.14 29568.09,-218.52 1083.33,-5651.96 338.97,-19691.53 340.54,-26198.29l-4677.15 0c0,7316.42 267.15,15144.06 -25.55,22397.56 -607.14,15042.29 -20441.75,15146.99 -20903.32,-371.17 -213.56,-7181 -9.91,-14693.87 -8.9,-21979.67l-4680.08 -38.96z"/>
   <path class="fil0" d="M429909.82 67213.21l6911.25 14719.2 -14198.3 -125.86 7287.05 -14593.34zm-13434.8 27729.13c815.17,-1966.39 2905.51,-7612.39 4573.58,-8885.98l17474.65 0c1518.45,1086.48 3987.28,7070.89 4654.07,8885.98l5136.03 -31.3 -18527.48 -38073.22c-207.37,175.4 -206.36,127.67 -550.85,610.4l-807.74 1573.39c-3022.49,6680.81 -16022.62,32847.36 -17031.09,35920.73l5078.83 0z"/>
   <path class="fil0" d="M170769.81 67213.21l6911.26 14719.2 -14198.19 -125.86 7286.93 -14593.34zm-13434.8 27729.13c815.18,-1966.39 2905.63,-7612.39 4573.58,-8885.98l17474.66 0c1518.44,1086.48 3987.27,7070.89 4616.81,8885.98l5173.28 -31.3 -18527.48 -38073.22 -18389.68 38104.52 5078.83 0z"/>
   <path class="fil0" d="M257958.53 92700.64l296.53 -5357.46c-4872.36,2758.83 -9240.15,6354.9 -16940.8,3549.02 -14838.76,-5406.89 -10611.24,-32777.57 8337.28,-28991.58 1423.65,284.37 3002.22,819.23 4182.03,1387.75 1518.56,731.86 2364.14,1605.92 3499.93,2170.72l401.68 -4625.03c-1156.4,-1113.51 -2722.92,-1840.65 -4225.27,-2396.56 -1629.9,-603.19 -3642.11,-1054.4 -5569.67,-1137.37 -3935.49,-169.54 -7713.26,694.61 -10656.15,2410.18 -16546.11,9645.32 -10569.59,37734.81 10656.27,36401.78 4907.48,-308.24 6583.09,-1948.61 10018.17,-3411.45z"/>
   <path class="fil0" d="M222646.07 87300.45c-4953.98,2813.09 -9464.63,6456.56 -17216.84,3440.72 -10915.2,-4246.44 -12002.48,-22537.05 -567.51,-27914.89 8172.47,-3843.4 13825.67,1098.2 16906.81,2593.23l314.99 -4631.9c-807.29,-840.95 -261.97,-361.37 -1221.8,-987.3 -283.92,-185.19 -746.39,-423.07 -1027.95,-564.81 -11635.13,-5858.43 -27560.83,1172.39 -27636.25,17836.03 -36.82,8134.41 4596.66,14113.53 9706,16800.53 9091.21,4780.95 14705.24,1237.91 20455.25,-1213.58l287.3 -5358.03z"/>
   <path class="fil0" d="M524157.33 88003.54l351.8 5130.16c6342.29,2853.4 12624.02,4584.84 19017.76,373.31 2117.92,-1394.95 4013.39,-4266.69 3890.79,-8273.45 -119.22,-3894.17 -2366.94,-6474 -4391.54,-8146.68 -3986.26,-3293.46 -13685.73,-4634.49 -13871.49,-10506.99 -121.92,-3853.09 3054.35,-5506.97 6885.59,-5433.23 3698.41,71.15 6135.83,2212.27 8710.03,3414.26l46.27 -5145.82c-5668.74,-2371.56 -12810.56,-4446.48 -18069.51,1408.58 -5502.69,6126.36 474.51,13147.72 5086.14,15557.67 4172.13,2180.3 15092.96,5186.8 10091.36,12320.62 -4393.91,6266.98 -14055.89,994.29 -17747.2,-698.43z"/>
   <path class="fil0" d="M401248.36 94815.8c0,-5413.07 0,-10826.26 0,-16239.45 0,-3473.47 -414.12,-13389.32 213.12,-16107.62l13095.97 -79.59 -105.8 -4067.32 -30652.82 0 15.83 4168.3 12757.07 0c790.25,2505.08 284.09,27417.63 281.8,32302.83l4394.83 22.85z"/>
   <path class="fil0" d="M507943.9 94894.13c0,-5413.08 0,-10826.26 0,-16239.45 0,-3473.47 -427.01,-13389.32 219.75,-16107.62l13503.47 -79.59 -175.73 -4067.32 -31540 0 65.86 4168.3 13104.49 0c814.84,2505.08 292.93,27417.63 290.57,32302.82l4531.59 22.86z"/>
  </g>
 </g>
</svg>
